<svg width="300" height="112" viewBox="0 0 300 112" fill="none" xmlns="http://www.w3.org/2000/svg">
<path fill-rule="evenodd" clip-rule="evenodd" d="M44.3874 7.5902C42.1812 4.9363 40.08 2.4947 38.189 0.2654C36.2979 2.6008 34.1967 5.0424 31.9904 7.5902C18.648 23.0892 0.262587 44.6391 0.262587 61.4119C0.262587 72.0276 4.46498 81.5817 11.3989 88.4819C18.2278 95.3821 27.683 99.7346 38.189 99.7346C48.6948 99.7346 58.1502 95.4883 64.979 88.4819C71.8079 81.5817 76.1153 71.9214 76.1153 61.4119C76.1153 44.6391 57.73 23.1953 44.3874 7.5902Z" fill="#56CCF2"/>
<path fill-rule="evenodd" clip-rule="evenodd" d="M42.1522 79.8771C38.0578 75.7848 35.4331 70.0135 35.4331 63.7176C35.4331 58.8908 33.4383 54.4838 30.2887 51.3358C27.1391 48.1879 22.7297 46.1942 17.9002 46.1942C13.0709 46.1942 8.55645 48.0829 5.40679 51.2308C2.46721 54.1689 0.472454 58.2612 0.262451 62.7733C0.577417 72.7418 4.77694 81.661 11.2861 88.2716C18.2152 95.0921 27.664 99.3943 38.1627 99.3943C48.6614 99.3943 58.1102 95.197 64.9344 88.2716C66.1942 87.0124 67.3491 85.6483 68.399 84.2842C65.3544 85.7533 61.8897 86.5927 58.3202 86.5927C52.021 86.5927 46.2467 84.0743 42.1522 79.8771Z" fill="#2D9CDB"/>
<path d="M105.086 62.0312C104.477 62.0312 103.914 62.1016 103.398 62.2422C102.93 62.3828 102.414 62.5234 101.852 62.6641C101.336 62.8047 100.82 62.9453 100.305 63.0859C99.7891 63.1797 99.25 63.2266 98.6875 63.2266C98.6875 61.6797 98.7578 60.2031 98.8984 58.7969C99.0391 57.3438 99.3438 55.8672 99.8125 54.3672V18.7891H101.711C101.758 18.7891 101.828 19.0234 101.922 19.4922C102.062 19.9609 102.18 20.5937 102.273 21.3906C102.414 22.1875 102.555 23.0781 102.695 24.0625C102.836 25 102.953 25.9609 103.047 26.9453C103.188 27.9297 103.305 28.9141 103.398 29.8984C103.492 30.8359 103.562 31.6094 103.609 32.2188C103.656 32.875 103.727 33.8594 103.82 35.1719C103.914 36.4844 103.984 37.9609 104.031 39.6016C104.125 41.2422 104.195 42.9766 104.242 44.8047C104.336 46.5859 104.406 48.2969 104.453 49.9375C104.547 51.5781 104.594 53.0547 104.594 54.3672C104.641 55.6797 104.664 56.6641 104.664 57.3203C104.852 57.8359 105.484 58.3047 106.562 58.7266C107.641 59.1016 108.977 59.4531 110.57 59.7812C112.164 60.0625 113.875 60.2969 115.703 60.4844C117.531 60.6719 119.266 60.8359 120.906 60.9766C122.594 61.0703 124.094 61.1406 125.406 61.1875C126.719 61.1875 127.609 61.1875 128.078 61.1875C129.203 61.1875 130.281 61.0469 131.312 60.7656C132.344 60.4375 133.375 60.0859 134.406 59.7109C135.438 59.3359 136.469 58.9844 137.5 58.6562C138.578 58.3281 139.68 58.1641 140.805 58.1641C141.227 58.1641 141.555 58.3047 141.789 58.5859C142.023 58.8672 142.141 59.2422 142.141 59.7109C142.141 60.2734 141.742 60.7891 140.945 61.2578C140.148 61.6797 139.117 62.0547 137.852 62.3828C136.633 62.7109 135.273 62.9922 133.773 63.2266C132.273 63.4609 130.797 63.6484 129.344 63.7891C127.891 63.8828 126.602 63.9531 125.477 64C124.352 64.0469 123.508 64.0703 122.945 64.0703C121.398 64.0703 119.875 63.9766 118.375 63.7891C116.922 63.5547 115.445 63.2969 113.945 63.0156C112.492 62.7344 111.016 62.5 109.516 62.3125C108.062 62.125 106.586 62.0312 105.086 62.0312ZM144.18 48.5312C144.227 48.1562 144.25 47.5469 144.25 46.7031C144.297 45.8594 144.344 44.8984 144.391 43.8203C144.484 42.7422 144.555 41.6172 144.602 40.4453C144.695 39.2734 144.766 38.1484 144.812 37.0703C144.859 35.9922 144.906 35.0312 144.953 34.1875C145 33.2969 145.047 32.6406 145.094 32.2188C145.328 31.8438 145.539 31.6094 145.727 31.5156C145.961 31.375 146.242 31.3047 146.57 31.3047C146.617 31.3047 146.688 31.3047 146.781 31.3047C146.875 31.3047 146.945 31.3047 146.992 31.3047C147.461 32.6641 147.695 34.3281 147.695 36.2969C147.742 38.2656 147.742 40.375 147.695 42.625C147.695 44.8281 147.719 47.0312 147.766 49.2344C147.859 51.4375 148.141 53.4297 148.609 55.2109C149.125 56.9922 149.922 58.4453 151 59.5703C152.078 60.6484 153.625 61.1875 155.641 61.1875C157.75 61.1875 159.578 60.7656 161.125 59.9219C162.672 59.0781 164.078 57.8828 165.344 56.3359C165.344 56.3828 165.367 56.5469 165.414 56.8281C165.461 57.0625 165.484 57.2266 165.484 57.3203C165.484 58.3516 165.039 59.2891 164.148 60.1328C163.305 60.9766 162.297 61.7031 161.125 62.3125C159.953 62.875 158.711 63.3203 157.398 63.6484C156.133 63.9297 155.102 64.0703 154.305 64.0703C152.195 64.0703 150.484 63.6719 149.172 62.875C147.859 62.0781 146.828 61 146.078 59.6406C145.328 58.2812 144.812 56.7344 144.531 55C144.297 53.2656 144.18 51.4844 144.18 49.6562V48.5312ZM146.57 23.5C145.82 23.5 145.281 23.2891 144.953 22.8672C144.672 22.3984 144.578 21.8828 144.672 21.3203C144.812 20.7578 145.07 20.2422 145.445 19.7734C145.82 19.3047 146.289 19.0703 146.852 19.0703C147.648 19.0703 148.258 19.3047 148.68 19.7734C149.102 20.2422 149.312 20.7578 149.312 21.3203C149.359 21.8828 149.148 22.3984 148.68 22.8672C148.258 23.2891 147.555 23.5 146.57 23.5ZM175.469 94.9375V93.6719C175.469 93.1094 175.469 92.5703 175.469 92.0547C175.469 91.5391 175.469 91.0703 175.469 90.6484C175.516 90.2734 175.539 90.0391 175.539 89.9453C175.586 89.5703 175.656 88.9375 175.75 88.0469C175.891 87.1562 176.055 86.1016 176.242 84.8828C176.43 83.7109 176.617 82.4453 176.805 81.0859C177.039 79.7734 177.25 78.5078 177.438 77.2891C177.625 76.1172 177.789 75.0156 177.93 73.9844C178.117 73 178.281 72.25 178.422 71.7344C178.469 71.4531 178.586 70.9141 178.773 70.1172C178.961 69.3203 179.195 68.3828 179.477 67.3047C179.758 66.2734 180.039 65.1719 180.32 64C180.602 62.8281 180.883 61.7031 181.164 60.625C181.445 59.5469 181.68 58.6328 181.867 57.8828C182.055 57.0859 182.195 56.5469 182.289 56.2656C182.289 56.1719 182.266 56.0312 182.219 55.8438C182.172 55.6562 182.148 55.5391 182.148 55.4922C181.727 55.4922 181.258 55.6328 180.742 55.9141C180.227 56.1953 179.664 56.5469 179.055 56.9688C178.445 57.3438 177.812 57.7891 177.156 58.3047C176.547 58.7734 175.914 59.2188 175.258 59.6406C174.648 60.0625 174.062 60.4141 173.5 60.6953C172.984 60.9766 172.516 61.1172 172.094 61.1172C170.172 61.1172 168.672 60.6016 167.594 59.5703C166.562 58.5391 166.047 57.0625 166.047 55.1406C165.344 53.0312 165.062 50.8047 165.203 48.4609C165.344 46.1172 165.742 43.8438 166.398 41.6406C167.102 39.4375 168.062 37.375 169.281 35.4531C170.5 33.4844 171.836 31.8672 173.289 30.6016C174.789 29.2891 176.383 28.3984 178.07 27.9297C179.758 27.4141 181.445 27.5078 183.133 28.2109C184.211 28.2109 185.172 28.3984 186.016 28.7734C186.906 29.1016 187.633 29.6172 188.195 30.3203C188.805 30.9766 189.273 31.75 189.602 32.6406C189.93 33.5312 190.094 34.4688 190.094 35.4531C190.094 35.5938 190.094 35.7812 190.094 36.0156C190.094 36.25 190.07 36.5078 190.023 36.7891C190.023 37.0234 190 37.2578 189.953 37.4922C189.953 37.6797 189.953 37.8203 189.953 37.9141C188.359 42.4609 186.906 47.2656 185.594 52.3281C184.281 57.3438 183.133 62.4297 182.148 67.5859C181.211 72.7422 180.484 77.8984 179.969 83.0547C179.5 88.2578 179.266 93.2266 179.266 97.9609C179.266 98.7109 179.266 99.6484 179.266 100.773C179.312 101.898 179.453 103.023 179.688 104.148C179.922 105.32 180.297 106.305 180.812 107.102C181.328 107.898 182.125 108.297 183.203 108.297C184.609 108.297 185.969 108.016 187.281 107.453C188.594 106.891 189.812 106.094 190.938 105.062C192.109 104.078 193.164 102.953 194.102 101.688C195.086 100.422 195.906 99.1094 196.562 97.75C197.266 96.3906 197.805 95.0078 198.18 93.6016C198.555 92.1953 198.742 90.8594 198.742 89.5938C198.742 88.2812 198.461 87.2266 197.898 86.4297C197.336 85.6328 196.633 84.9297 195.789 84.3203C194.992 83.7109 194.148 83.125 193.258 82.5625C192.414 82 191.641 81.25 190.938 80.3125C191.031 80.3125 191.242 80.2891 191.57 80.2422C191.945 80.2422 192.203 80.2422 192.344 80.2422C193.844 80.2422 195.133 80.5938 196.211 81.2969C197.289 82 198.156 82.8906 198.812 83.9688C199.469 85.0938 199.938 86.3125 200.219 87.625C200.547 88.9375 200.711 90.2266 200.711 91.4922C200.711 92.7578 200.477 94.1406 200.008 95.6406C199.586 97.1406 198.977 98.6172 198.18 100.07C197.43 101.57 196.516 102.977 195.438 104.289C194.406 105.648 193.258 106.844 191.992 107.875C190.727 108.953 189.367 109.797 187.914 110.406C186.508 111.016 185.078 111.32 183.625 111.32C182.266 111.32 181.117 111.039 180.18 110.477C179.242 109.961 178.469 109.234 177.859 108.297C177.25 107.406 176.781 106.375 176.453 105.203C176.172 104.031 175.938 102.836 175.75 101.617C175.609 100.398 175.516 99.2031 175.469 98.0312C175.469 96.9062 175.469 95.875 175.469 94.9375ZM183.836 31.0938C181.773 30.9531 179.945 31.375 178.352 32.3594C176.758 33.3438 175.328 34.6562 174.062 36.2969C172.844 37.9375 171.812 39.8125 170.969 41.9219C170.172 43.9844 169.562 46.0469 169.141 48.1094C168.766 50.1719 168.602 52.1406 168.648 54.0156C168.742 55.8438 169.094 57.3203 169.703 58.4453C170.922 58.4453 172.211 58.0234 173.57 57.1797C174.93 56.2891 176.242 55.1406 177.508 53.7344C178.773 52.3281 179.992 50.7344 181.164 48.9531C182.383 47.1719 183.414 45.3672 184.258 43.5391C185.148 41.7109 185.852 39.9766 186.367 38.3359C186.883 36.6484 187.141 35.1953 187.141 33.9766C187.141 33.0391 186.789 32.3359 186.086 31.8672C185.43 31.3516 184.68 31.0938 183.836 31.0938ZM178.422 104.852C178.188 104.852 178.07 105.016 178.07 105.344C178.07 105.719 178.188 105.906 178.422 105.906C178.656 105.906 178.773 105.719 178.773 105.344C178.773 105.016 178.656 104.852 178.422 104.852ZM213.016 55.2812C212.969 55.2812 212.898 55.3047 212.805 55.3516C212.711 55.3516 212.641 55.375 212.594 55.4219C211.75 56.4062 210.93 57.3906 210.133 58.375C209.336 59.3125 208.516 60.1328 207.672 60.8359C206.828 61.4922 205.891 62.0547 204.859 62.5234C203.828 62.9453 202.656 63.1562 201.344 63.1562C200.594 63.1562 199.914 62.9688 199.305 62.5938C198.742 62.2188 198.25 61.75 197.828 61.1875C197.406 60.625 197.055 59.9922 196.773 59.2891C196.492 58.5859 196.328 57.9297 196.281 57.3203C196.234 56.9922 196.188 56.2422 196.141 55.0703C196.141 53.8984 196.141 52.4922 196.141 50.8516V40.0234C196.141 38.2422 196.141 36.6719 196.141 35.3125C196.141 33.9062 196.094 32.9219 196 32.3594C196 32.2656 195.977 32.0312 195.93 31.6562C195.93 31.2344 195.93 30.9531 195.93 30.8125C195.93 30.25 196 29.7109 196.141 29.1953C196.281 28.6797 196.727 28.4219 197.477 28.4219C197.805 28.4219 198.062 28.5156 198.25 28.7031C198.484 28.8438 198.672 29.125 198.812 29.5469C198.906 29.9688 198.977 30.8359 199.023 32.1484C199.117 33.4609 199.188 35.0078 199.234 36.7891C199.328 38.5703 199.398 40.4453 199.445 42.4141C199.492 44.3828 199.539 46.2578 199.586 48.0391C199.68 49.7734 199.75 51.3203 199.797 52.6797C199.891 53.9922 199.984 54.9062 200.078 55.4219C200.172 55.9844 200.289 56.5 200.43 56.9688C200.617 57.4375 200.805 57.8594 200.992 58.2344C201.227 58.5625 201.531 58.8203 201.906 59.0078C202.328 59.1953 202.82 59.2891 203.383 59.2891C203.523 59.2891 203.781 59.2891 204.156 59.2891C204.531 59.2891 204.766 59.2656 204.859 59.2188C206.734 57.5781 208.375 55.5859 209.781 53.2422C211.188 50.8516 212.336 48.3203 213.227 45.6484C214.117 42.9766 214.797 40.2578 215.266 37.4922C215.781 34.7266 216.109 32.0781 216.25 29.5469L216.461 29.4766C216.555 29.4766 216.625 29.4766 216.672 29.4766C217 29.4766 217.258 29.5469 217.445 29.6875C217.68 29.8281 217.891 30.0625 218.078 30.3906C218.125 31.5156 218.125 32.8984 218.078 34.5391C218.078 36.1328 218.078 37.8203 218.078 39.6016C218.078 41.3828 218.125 43.2344 218.219 45.1562C218.312 47.0781 218.477 48.9531 218.711 50.7812C218.945 52.5625 219.32 54.2266 219.836 55.7734C220.398 57.2734 221.125 58.5625 222.016 59.6406C222.906 60.6719 223.984 61.4219 225.25 61.8906C226.562 62.3594 228.109 62.4062 229.891 62.0312C229.516 62.6406 229.07 63.0859 228.555 63.3672C228.086 63.6016 227.547 63.7891 226.938 63.9297C226.328 64.0703 225.719 64.1406 225.109 64.1406H223.281C222.062 64.1406 220.984 63.9297 220.047 63.5078C219.109 63.0391 218.289 62.4766 217.586 61.8203C216.883 61.1641 216.297 60.4609 215.828 59.7109C215.359 58.9609 214.961 58.2578 214.633 57.6016C214.305 56.9453 214 56.4062 213.719 55.9844C213.484 55.5156 213.25 55.2812 213.016 55.2812ZM232.773 48.5312C232.82 48.1562 232.844 47.5469 232.844 46.7031C232.891 45.8594 232.938 44.8984 232.984 43.8203C233.078 42.7422 233.148 41.6172 233.195 40.4453C233.289 39.2734 233.359 38.1484 233.406 37.0703C233.453 35.9922 233.5 35.0312 233.547 34.1875C233.594 33.2969 233.641 32.6406 233.688 32.2188C233.922 31.8438 234.133 31.6094 234.32 31.5156C234.555 31.375 234.836 31.3047 235.164 31.3047C235.211 31.3047 235.281 31.3047 235.375 31.3047C235.469 31.3047 235.539 31.3047 235.586 31.3047C236.055 32.6641 236.289 34.3281 236.289 36.2969C236.336 38.2656 236.336 40.375 236.289 42.625C236.289 44.8281 236.312 47.0312 236.359 49.2344C236.453 51.4375 236.734 53.4297 237.203 55.2109C237.719 56.9922 238.516 58.4453 239.594 59.5703C240.672 60.6484 242.219 61.1875 244.234 61.1875C246.344 61.1875 248.172 60.7656 249.719 59.9219C251.266 59.0781 252.672 57.8828 253.938 56.3359C253.938 56.3828 253.961 56.5469 254.008 56.8281C254.055 57.0625 254.078 57.2266 254.078 57.3203C254.078 58.3516 253.633 59.2891 252.742 60.1328C251.898 60.9766 250.891 61.7031 249.719 62.3125C248.547 62.875 247.305 63.3203 245.992 63.6484C244.727 63.9297 243.695 64.0703 242.898 64.0703C240.789 64.0703 239.078 63.6719 237.766 62.875C236.453 62.0781 235.422 61 234.672 59.6406C233.922 58.2812 233.406 56.7344 233.125 55C232.891 53.2656 232.773 51.4844 232.773 49.6562V48.5312ZM235.164 23.5C234.414 23.5 233.875 23.2891 233.547 22.8672C233.266 22.3984 233.172 21.8828 233.266 21.3203C233.406 20.7578 233.664 20.2422 234.039 19.7734C234.414 19.3047 234.883 19.0703 235.445 19.0703C236.242 19.0703 236.852 19.3047 237.273 19.7734C237.695 20.2422 237.906 20.7578 237.906 21.3203C237.953 21.8828 237.742 22.3984 237.273 22.8672C236.852 23.2891 236.148 23.5 235.164 23.5ZM271.445 53.4531C270.93 53.9688 270.32 54.6016 269.617 55.3516C268.961 56.1016 268.281 56.8984 267.578 57.7422C266.875 58.5391 266.102 59.3594 265.258 60.2031C264.461 61 263.641 61.7266 262.797 62.3828C262 63.0391 261.18 63.5547 260.336 63.9297C259.539 64.3047 258.719 64.4922 257.875 64.4922C256.844 64.4922 255.93 64.3047 255.133 63.9297C254.383 63.5547 253.727 63.0156 253.164 62.3125C252.648 61.6094 252.25 60.8359 251.969 59.9922C251.688 59.1016 251.547 58.2109 251.547 57.3203C251.406 56.1016 251.453 54.625 251.688 52.8906C251.969 51.1562 252.414 49.3516 253.023 47.4766C253.68 45.5547 254.477 43.6797 255.414 41.8516C256.352 39.9766 257.406 38.2891 258.578 36.7891C259.75 35.2891 261.016 34.0938 262.375 33.2031C263.734 32.3125 265.141 31.8672 266.594 31.8672C267.156 31.8672 267.648 31.8906 268.07 31.9375C268.539 31.9375 268.984 31.9844 269.406 32.0781C269.875 32.125 270.32 32.2188 270.742 32.3594C271.211 32.5 271.773 32.6641 272.43 32.8516C272.805 32.4297 273.062 32.0078 273.203 31.5859C273.344 31.1172 273.414 30.6484 273.414 30.1797C273.461 29.6641 273.461 29.1484 273.414 28.6328C273.367 28.1172 273.344 27.6016 273.344 27.0859C273.344 26.6641 273.367 26.0078 273.414 25.1172C273.508 24.2266 273.578 23.2188 273.625 22.0938C273.672 20.9219 273.719 19.7031 273.766 18.4375C273.859 17.1719 273.93 15.9766 273.977 14.8516C274.07 13.6797 274.141 12.6484 274.188 11.7578C274.281 10.8672 274.328 10.2109 274.328 9.78906L274.539 9.71875C274.68 9.71875 274.797 9.71875 274.891 9.71875C275.219 9.71875 275.477 9.78906 275.664 9.92969C275.898 10.0703 276.086 10.3516 276.227 10.7734C276.367 11.5234 276.414 12.8359 276.367 14.7109C276.367 16.5859 276.32 18.7891 276.227 21.3203C276.133 23.8516 276.016 26.6172 275.875 29.6172C275.781 32.6172 275.711 35.6172 275.664 38.6172C275.664 41.5703 275.758 44.4531 275.945 47.2656C276.133 50.0312 276.461 52.4688 276.93 54.5781C277.398 56.6406 278.031 58.2812 278.828 59.5C279.672 60.7188 280.75 61.2812 282.062 61.1875C282.484 61.1406 283.164 60.9531 284.102 60.625C285.039 60.2969 286.023 59.9453 287.055 59.5703C288.133 59.1953 289.164 58.8672 290.148 58.5859C291.18 58.2578 292.023 58.0938 292.68 58.0938C292.727 58.0938 292.867 58.1172 293.102 58.1641C293.336 58.2109 293.5 58.2344 293.594 58.2344C292.75 59.0781 291.812 59.875 290.781 60.625C289.75 61.3281 288.648 61.9375 287.477 62.4531C286.305 62.9688 285.086 63.3906 283.82 63.7188C282.555 64 281.336 64.1406 280.164 64.1406C278.805 64.1406 277.586 63.8125 276.508 63.1562C275.477 62.5 274.586 61.6562 273.836 60.625C273.133 59.5938 272.57 58.4453 272.148 57.1797C271.727 55.9141 271.492 54.6719 271.445 53.4531ZM267.648 34.6797C265.633 35.3359 263.852 36.3906 262.305 37.8438C260.758 39.2969 259.422 40.9141 258.297 42.6953C257.172 44.4766 256.281 46.3516 255.625 48.3203C254.969 50.2891 254.523 52.1641 254.289 53.9453C254.102 55.6797 254.102 57.2266 254.289 58.5859C254.477 59.8984 254.898 60.7891 255.555 61.2578C256.914 61.2578 258.273 60.9297 259.633 60.2734C260.992 59.6172 262.281 58.75 263.5 57.6719C264.766 56.5938 265.938 55.3281 267.016 53.875C268.094 52.4219 269.031 50.9219 269.828 49.375C270.672 47.8281 271.305 46.2578 271.727 44.6641C272.195 43.0234 272.43 41.5 272.43 40.0938V39.4609C272.43 39.1328 272.43 38.7812 272.43 38.4062C272.43 38.0312 272.43 37.7031 272.43 37.4219C272.43 37.0938 272.43 36.8828 272.43 36.7891C272.242 36.1797 271.961 35.7344 271.586 35.4531C271.258 35.125 270.859 34.9141 270.391 34.8203C269.969 34.6797 269.5 34.6328 268.984 34.6797C268.469 34.6797 268.023 34.6797 267.648 34.6797Z" fill="black"/>
</svg>
