<svg width="289" height="375" viewBox="0 0 289 375" fill="none" xmlns="http://www.w3.org/2000/svg">
<path fill-rule="evenodd" clip-rule="evenodd" d="M168.116 27.6151C159.71 17.6098 151.705 8.40502 144.5 0.000558019C137.295 8.80502 129.289 18.0098 120.884 27.6151C70.0488 86.0463 0.000458002 167.289 0.000458002 230.523C0.000458002 270.544 16.0116 306.563 42.4297 332.577C68.4477 358.591 104.472 374.999 144.5 374.999C184.527 374.999 220.552 358.991 246.57 332.577C272.588 306.563 288.999 270.144 288.999 230.523C288.999 167.289 218.951 86.4463 168.116 27.6151Z" fill="#56CCF2"/>
<path fill-rule="evenodd" clip-rule="evenodd" d="M159.6 299.332C144 283.74 134 261.752 134 237.764C134 219.374 126.4 202.583 114.4 190.589C102.4 178.596 85.6002 171 67.2 171C48.8 171 31.6001 178.196 19.5999 190.19C8.40014 201.384 0.80011 216.975 0 234.166C1.20002 272.146 17.2002 306.128 42.0001 331.315C68.4 357.301 104.4 373.692 144.4 373.692C184.4 373.692 220.4 357.701 246.4 331.315C251.2 326.517 255.6 321.32 259.6 316.123C248 321.72 234.8 324.918 221.2 324.918C197.2 324.918 175.2 315.323 159.6 299.332Z" fill="#2D9CDB"/>
</svg>
